<?xml version="1.0" encoding="utf-8"?>
<!-- Svg Vector Icons : http://www.onlinewebfonts.com/icon -->
<!DOCTYPE svg PUBLIC "-//W3C//DTD SVG 1.1//EN" "http://www.w3.org/Graphics/SVG/1.1/DTD/svg11.dtd">
<svg version="1.1" xmlns="http://www.w3.org/2000/svg" xmlns:xlink="http://www.w3.org/1999/xlink" x="0px" y="0px" viewBox="0 0 1000 1000" enable-background="new 0 0 1000 1000" xml:space="preserve">
<metadata> Svg Vector Icons : http://www.onlinewebfonts.com/icon </metadata>
<g><g transform="translate(0.000000,511.000000) scale(0.100000,-0.100000)"><path fill="white" d="M4530.2,4932.3C3471.9,4827.1,2407.9,4314.2,1634.8,3543c-627.7-629.6-1081.2-1437.2-1286-2290.7C295.2,1026.5,234,662.9,234,565.3v-49.8h1215.2h1215.2l11.5,53.6c118.6,541.6,296.6,880.3,648.7,1240.1c283.2,287.1,551.1,461.2,905.2,589.4c501.4,179.9,1132.9,179.9,1634.3,0c290.9-105.3,646.8-319.6,813.3-489.9l82.3-82.3l-641.1-641.1c-352.1-352.1-641.1-646.8-641.1-654.5c0-9.6,991.3-15.3,2200.7-15.3H9879v2214.1v2216.1l-702.3-702.3L8472.4,3543l-200.9,179.9c-750.2,673.6-1668.7,1087-2677.3,1203.7C5332,4957.2,4805.8,4961,4530.2,4932.3z M5726.2,4584c1004.7-168.4,1775.9-562.6,2528-1291.7l218.2-210.5l541.6,539.7l539.7,539.7V2500V840.8H7907.9c-905.2,0-1645.8,5.7-1645.8,13.4c0,9.6,218.2,233.5,484.2,499.5l482.3,486.1l-208.6,199c-114.8,109.1-283.2,250.7-373.2,315.8c-759.7,541.6-1758.7,658.3-2631.3,306.2c-491.8-197.1-943.5-562.6-1236.2-998.9c-151.2-227.7-220.1-361.7-308.1-610.5l-70.8-200.9l-901.3-5.7c-495.6-1.9-901.4,0-901.4,5.7c0,5.7,21.1,107.2,45.9,225.8c392.3,1812.3,1911.8,3234.1,3743.2,3504c304.3,45.9,323.4,45.9,755.9,40.2C5395.2,4616.6,5611.4,4603.2,5726.2,4584z"/><path fill="white" d="M100-2500.5v-2231.4l327.2,311.9c179.9,172.2,512.9,491.8,740.6,708.1l415.3,396.1l122.5-114.8c683.2-639.2,1582.6-1067.8,2595-1234.3c302.4-49.7,1152-49.7,1454.4,0c1087,179.9,1969.2,629.6,2738.5,1398.9c405.7,407.6,667.9,777,926.2,1303.2c254.5,518.6,400,1012.4,468.9,1594.1l11.5,99.5H8677.2H7454.3l-13.4-95.7c-21-164.6-105.3-422.9-202.8-625.8c-354-746.3-1012.4-1194.1-1888.8-1289.8c-679.4-72.7-1402.7,158.8-1875.4,602.8l-111,105.3l650.7,650.7l650.7,652.6h-2283H100V-2500.5z M3395.4-1078.6c-264.1-264.1-482.3-491.8-482.3-505.2c0-36.3,398-400,583.7-530.1c306.2-220.1,652.6-369.4,1048.7-455.5c256.4-55.5,790.4-59.3,1060.2-9.6c576,107.2,1048.7,346.4,1421.9,721.5c200.9,199,378.9,451.6,497.6,698.5c78.5,164.6,191.4,478.4,191.4,533.9c0,26.8,88,30.6,907.1,30.6h907.1l-34.4-156.9c-153.1-696.6-421-1287.9-834.4-1833.3C7927-3554.9,6788.3-4207.5,5577-4354.8c-361.7-44-960.7-32.5-1291.7,26.8c-497.6,88-859.3,204.7-1286,411.4c-461.2,225.8-819.1,478.4-1198,847.8c-111,109.1-208.6,197.1-218.2,197.1c-11.5,0-512.9-474.6-1020-964.5l-137.8-134v1687.9v1687.9h1726.2h1728.1L3395.4-1078.6z"/></g></g>
</svg>