<svg id="Layer_1_copy" height="512" viewBox="0 0 512 512" width="512" xmlns="http://www.w3.org/2000/svg" data-name="Layer 1 copy"><path fill="#ffffff" d="m466.769 407.138a32 32 0 0 0 -64 0h16a16 16 0 1 1 16 16l-234.769-.024v16l234.77.023a32.036 32.036 0 0 0 31.999-31.999z"/><path fill="#ffffff" d="m432 248c-9.994 0-35.94 12.923-43.654 16.883a8 8 0 0 0 0 14.234c7.714 3.96 33.66 16.883 43.654 16.883 5.841 0 14.847-2.134 22.411-5.31 11.671-4.901 17.589-11.19 17.589-18.69s-5.918-13.789-17.589-18.69c-7.564-3.176-16.57-5.31-22.411-5.31z"/><path fill="#ffffff" d="m354.287 344.384c-8.255 2.654-35.739 11.864-42.806 18.93-4.13 4.13-8.99 12.007-12.092 19.6-4.787 11.719-4.525 20.35.778 25.653 2.789 2.788 6.5 4.183 11.09 4.183q6.214 0 14.563-3.405c7.595-3.1 15.472-7.962 19.6-12.092 7.067-7.066 16.276-34.551 18.93-42.807a8 8 0 0 0 -10.065-10.064z"/><path fill="#ffffff" d="m447.431 208.568c2.789 2.788 6.5 4.183 11.09 4.183q6.215 0 14.563-3.405c7.6-3.1 15.473-7.962 19.6-12.092 7.067-7.066 16.276-34.551 18.93-42.807a8 8 0 0 0 -10.065-10.064c-8.255 2.654-35.739 11.864-42.806 18.93-6.585 6.587-22.992 33.575-11.312 45.255z"/><path fill="#ffffff" d="m216 480h80v16h-80z"/><path fill="#ffffff" d="m0 455h80v16h-80z"/><path fill="#ffffff" d="m280 400v-16h-104v-14.549a93.748 93.748 0 0 0 10.865.639c25.176 0 50.191-10.173 73.341-30.016a181.707 181.707 0 0 0 34.653-39.958 8 8 0 0 0 -1.2-9.773l-10.209-10.207c44.966-5.768 88.123-48.395 90.207-50.479a8 8 0 0 0 1.5-9.235c-4.326-8.651-12.468-17.06-19.785-23.478 34.411-7.276 60.663-22.979 78.2-46.821 32.866-44.684 22.741-101.213 22.294-103.6a8 8 0 0 0 -4.753-5.9c-49.985-21.086-103.565-6.744-128.467 2.347 3.187-24.172-2.685-36.948-3.487-38.554a8 8 0 0 0 -7.159-4.416c-37.817 0-75.854 14.438-110 41.753a242.366 242.366 0 0 0 -26 24.164v-33.917a8 8 0 0 0 -8-8 168.47 168.47 0 0 0 -168 168c0 72.64 34.464 112.3 63.376 132.778a167.589 167.589 0 0 0 56.624 25.743v33.479h-72v16h72v112h16v-216c0-53.634 15.276-92.647 15.428-93.029a8 8 0 0 0 -.568-7.087l-47.819-79.7 16.959-9.184 54.656 81.438c.312-.467 31.646-47.024 77.781-77.781a8 8 0 0 0 2.718-3.078l32-64 8.845 4.421-16 54 61-22 7.636 16.66c-44.285 13.042-81.742 31.429-111.328 54.674-24.1 18.934-43.059 41.1-56.357 65.884-22.03 41.054-21.118 75.356-20.951 78.982v215.8h16v-112zm-10.458-175.187c-2.719-.869-10.282-6.772-18.41-13.866 10.689-1.456 20.251-2.229 23-1.463 6.33 1.9 17.358 9.972 20.047 14.358-4.663 2.183-18.313 2.866-24.637.971z"/><path fill="#ffffff" d="m400 475h112v16h-112z"/></svg>